<svg xmlns="http://www.w3.org/2000/svg" xmlns:xlink="http://www.w3.org/1999/xlink" id="Layer_1" style="enable-background:new 0 0 3000 3000" version="1.1" viewBox="0 0 3000 3000" xml:space="preserve"><style type="text/css">.st0{fill:#0acf83}.st1{fill:#a259ff}.st2{fill:#f24e1e}.st3{fill:#ff7262}.st4{fill:#1abcfe}</style><title/><desc/><path id="path0_fill" d="M1083.333374,2750c230,0,416.666626-186.666748,416.666626-416.666748v-416.666626h-416.666626 c-230.000061,0-416.666687,186.666626-416.666687,416.666626S853.333313,2750,1083.333374,2750z" class="st0"/><path id="path1_fill" d="M666.666687,1500c0-230,186.666626-416.666748,416.666687-416.666748H1500v833.333374 h-416.666626C853.333313,1916.666626,666.666687,1730,666.666687,1500z" class="st1"/><path id="path1_fill_1_" d="M666.666687,666.666626C666.666687,436.666656,853.333313,250,1083.333374,250H1500 v833.333252h-416.666626C853.333313,1083.333252,666.666687,896.666626,666.666687,666.666626z" class="st2"/><path id="path2_fill" d="M1500,250h416.666626c230.000122,0,416.666626,186.666656,416.666626,416.666626 s-186.666504,416.666626-416.666626,416.666626H1500V250z" class="st3"/><path id="path3_fill" d="M2333.333252,1500c0,230-186.666504,416.666626-416.666626,416.666626S1500,1730,1500,1500 s186.666626-416.666748,416.666626-416.666748S2333.333252,1270,2333.333252,1500z" class="st4"/></svg>