<svg xmlns="http://www.w3.org/2000/svg" width="1600" height="1600" fill="none" viewBox="0 0 1600 1600"><mask id="mask0" width="1200" height="1600" x="200" y="0" mask-type="alpha" maskUnits="userSpaceOnUse"><path fill="#fff" d="M1333.25 0C1370.11 0 1400 29.8849 1400 66.75V1533.25C1400 1570.11 1370.11 1600 1333.25 1600H266.667C229.848 1600 200 1570.15 200 1533.33V866.667C200 829.848 229.848 800 266.667 800H525V466.667C525 429.848 554.848 400 591.667 400H850V66.75C850 29.885 879.885 0 916.75 0H1333.25Z"/></mask><g mask="url(#mask0)"><path fill="url(#paint0_linear)" d="M1400 66.75L1400 1533.25C1400 1570.11 1370.11 1600 1333.25 1600H916.75C879.885 1600 850 1570.11 850 1533.25L850 66.75C850 29.885 879.885 0 916.75 0H1333.25C1370.12 0 1400 29.8849 1400 66.75Z"/><g filter="url(#filter0_dd)"><path fill="url(#paint1_linear)" d="M1075 466.667V1600H525V466.667C525 429.848 554.848 400 591.667 400H1008.33C1045.15 400 1075 429.848 1075 466.667Z"/></g><path fill="url(#paint2_linear)" d="M200 866.667V1533.33C200 1570.15 229.848 1600 266.667 1600H750V866.667C750 829.848 720.152 800 683.333 800H266.667C229.848 800 200 829.848 200 866.667Z"/></g><defs><filter id="filter0_dd" width="560.667" height="1210.67" x="519.667" y="396" color-interpolation-filters="sRGB" filterUnits="userSpaceOnUse"><feFlood flood-opacity="0" result="BackgroundImageFix"/><feColorMatrix in="SourceAlpha" type="matrix" values="0 0 0 0 0 0 0 0 0 0 0 0 0 0 0 0 0 0 127 0"/><feOffset dy=".253"/><feGaussianBlur stdDeviation=".253"/><feColorMatrix type="matrix" values="0 0 0 0 0 0 0 0 0 0 0 0 0 0 0 0 0 0 0.2 0"/><feBlend in2="BackgroundImageFix" mode="normal" result="effect1_dropShadow"/><feColorMatrix in="SourceAlpha" type="matrix" values="0 0 0 0 0 0 0 0 0 0 0 0 0 0 0 0 0 0 127 0"/><feOffset dy="1.333"/><feGaussianBlur stdDeviation="2.667"/><feColorMatrix type="matrix" values="0 0 0 0 0 0 0 0 0 0 0 0 0 0 0 0 0 0 0.18 0"/><feBlend in2="effect1_dropShadow" mode="normal" result="effect2_dropShadow"/><feBlend in="SourceGraphic" in2="effect2_dropShadow" mode="normal" result="shape"/></filter><linearGradient id="paint0_linear" x1="758.333" x2="1447.82" y1="0" y2="1507.15" gradientUnits="userSpaceOnUse"><stop stop-color="#E6AD10"/><stop offset="1" stop-color="#C87E0E"/></linearGradient><linearGradient id="paint1_linear" x1="524.955" x2="1105.79" y1="400" y2="1561.67" gradientUnits="userSpaceOnUse"><stop stop-color="#F6D751"/><stop offset="1" stop-color="#E6AD10"/></linearGradient><linearGradient id="paint2_linear" x1="199.955" x2="519.784" y1="800" y2="1581.68" gradientUnits="userSpaceOnUse"><stop stop-color="#F9E589"/><stop offset="1" stop-color="#F6D751"/></linearGradient></defs></svg>